<?xml version="1.0" standalone="no"?>
<!DOCTYPE svg PUBLIC "-//W3C//DTD SVG 20010904//EN"
 "http://www.w3.org/TR/2001/REC-SVG-20010904/DTD/svg10.dtd">
<svg version="1.0" xmlns="http://www.w3.org/2000/svg"
 width="4421.000000pt" height="5000.000000pt" viewBox="0 0 4421.000000 5000.000000"
 preserveAspectRatio="xMidYMid meet">

<g transform="translate(0.000000,5000.000000) scale(0.100000,-0.100000)"
fill="#000000" stroke="none">
<path fill="#9f8585" d="M12177 38059 c-43 -126 -260 -485 -423 -700 -408 -539 -816 -929
-1145 -1095 -41 -20 -77 -42 -81 -48 -13 -20 -8 -268 6 -331 24 -101 -8 -95
497 -95 l438 0 4 -2032 c3 -1536 6 -2059 16 -2138 43 -367 155 -687 324 -927
76 -108 264 -297 380 -381 160 -116 380 -217 596 -272 281 -71 663 -71 956 1
263 65 529 183 818 363 131 82 217 147 306 232 l74 71 -17 44 c-41 104 -149
259 -181 259 -6 0 -63 -29 -128 -64 -284 -154 -548 -226 -827 -226 -247 0
-421 47 -605 165 -77 49 -248 221 -303 305 -124 188 -199 418 -222 680 -6 73
-10 812 -10 2018 l0 1902 1014 0 1013 0 35 78 c76 168 111 315 112 470 l1 114
-31 27 -31 28 -899 7 c-494 3 -970 9 -1056 13 l-158 6 0 758 0 759 -22 14
c-40 26 -108 36 -273 43 l-160 6 -18 -54z"/>
<path fill="#9f8585" d="M19400 36750 c-233 -21 -495 -121 -729 -278 -304 -205 -634 -518
-810 -770 -24 -34 -46 -61 -48 -58 -2 2 17 176 43 387 48 390 54 497 34 593
-20 98 -19 98 -253 33 -268 -74 -481 -114 -1420 -267 -508 -82 -599 -99 -612
-116 -31 -40 -48 -127 -49 -249 l-1 -120 50 -11 c28 -6 100 -17 162 -23 145
-15 325 -61 417 -106 228 -112 374 -325 430 -627 32 -169 36 -374 36 -1853 0
-1687 -7 -1949 -56 -2250 -28 -166 -53 -247 -87 -284 -95 -101 -618 -261 -854
-261 -61 0 -78 -13 -94 -73 -17 -61 -6 -249 18 -312 l19 -50 59 -3 c33 -1 407
13 830 33 l770 35 827 -37 c667 -30 830 -35 840 -25 9 9 13 53 13 150 -1 140
-16 241 -40 265 -7 8 -46 16 -87 20 -196 15 -532 105 -714 192 -125 60 -147
84 -167 182 -39 182 -66 390 -88 673 -16 202 -24 2850 -9 3014 31 348 196 688
449 928 271 256 530 355 839 319 144 -17 263 -60 372 -134 25 -17 98 -82 163
-144 163 -155 268 -211 427 -227 140 -14 276 40 383 153 36 38 81 98 101 133
77 138 123 343 135 596 l6 145 -80 82 c-155 159 -337 251 -603 305 -172 35
-469 54 -622 40z"/>
<path fill="#9f8585" d="M24230 36733 c-395 -27 -705 -102 -1032 -249 -318 -143 -589 -332
-841 -587 -500 -507 -804 -1171 -911 -1987 -39 -297 -48 -730 -21 -996 63
-608 249 -1102 603 -1604 162 -229 399 -478 627 -661 437 -348 947 -564 1490
-630 144 -18 529 -18 665 -1 388 50 716 168 1075 386 292 177 550 396 728 617
117 147 157 245 157 387 0 97 -18 148 -58 168 -21 10 -34 4 -133 -67 -228
-163 -622 -356 -874 -428 -240 -69 -409 -91 -728 -98 -355 -8 -537 13 -777 89
-313 98 -528 229 -802 490 -220 209 -435 529 -549 815 -151 381 -225 722 -232
1070 -2 126 -1 133 21 155 l23 23 2057 5 c1957 5 2060 6 2112 23 87 29 126 61
149 121 101 271 8 971 -191 1446 -58 136 -160 337 -236 465 -308 516 -918 902
-1602 1014 -203 33 -520 48 -720 34z m220 -579 c218 -32 420 -117 588 -248 83
-64 279 -268 346 -360 126 -171 226 -366 300 -582 61 -181 87 -313 94 -471 5
-145 1 -174 -28 -203 -20 -20 -40 -20 -1524 -20 -973 0 -1514 4 -1531 10 -55
21 -63 86 -34 285 35 233 161 566 305 804 135 223 398 508 566 614 269 171
561 225 918 171z"/>
<path fill="#9f8585" d="M30785 36733 c-333 -26 -562 -72 -814 -163 -406 -145 -750 -365
-1054 -673 -452 -458 -753 -1063 -876 -1757 -52 -292 -71 -523 -71 -846 0
-340 30 -594 105 -894 225 -894 861 -1686 1690 -2102 281 -142 609 -239 945
-280 138 -17 537 -17 660 0 406 57 715 167 1075 386 112 68 285 190 390 276
88 73 295 284 362 370 97 125 137 236 131 367 -4 96 -20 141 -56 159 -22 11
-34 5 -125 -61 -268 -192 -681 -386 -980 -459 -208 -51 -343 -67 -630 -73
-420 -9 -654 29 -956 153 -379 157 -753 493 -997 896 -244 403 -383 875 -410
1398 -7 136 -7 136 19 165 l25 30 2059 5 2058 5 65 22 c110 37 148 94 169 248
30 213 -10 625 -90 918 -104 387 -307 814 -504 1062 -277 349 -746 639 -1231
764 -279 72 -680 107 -959 84z m225 -579 c212 -31 413 -115 577 -239 82 -62
272 -256 342 -350 237 -317 395 -729 409 -1067 5 -134 -1 -181 -29 -209 -19
-19 -47 -19 -1523 -19 -973 0 -1514 4 -1531 10 -42 16 -58 68 -50 169 18 231
95 481 231 753 118 236 245 408 439 596 185 180 331 271 520 325 200 57 383
66 615 31z"/>
<path fill="#442B48" d="M10091 21244 c-311 -42 -626 -171 -851 -348 -407 -319 -640 -707
-716 -1196 -22 -142 -21 -402 1 -540 65 -405 235 -740 518 -1021 246 -245 512
-398 837 -479 413 -104 852 -64 1220 111 493 235 844 649 997 1175 l18 62 165
-62 c746 -282 1367 -651 1971 -1170 159 -137 498 -482 651 -664 598 -708 1048
-1539 1346 -2487 81 -258 121 -408 228 -859 155 -658 366 -1261 608 -1744 614
-1225 1539 -1947 2661 -2077 78 -9 219 -15 352 -15 l222 0 16 -57 c157 -570
547 -1015 1085 -1236 223 -91 429 -130 690 -129 498 1 953 191 1290 539 263
270 420 562 501 930 30 139 38 474 15 623 -94 597 -460 1101 -998 1371 -378
190 -845 242 -1253 138 -515 -131 -955 -482 -1189 -948 -107 -212 -174 -449
-192 -670 l-7 -94 -226 6 c-174 5 -260 12 -376 32 -829 140 -1481 626 -2003
1493 -217 361 -415 820 -572 1332 -52 169 -125 447 -225 860 -185 761 -400
1351 -712 1950 -523 1007 -1224 1820 -2122 2465 -293 211 -520 348 -896 541
l-220 114 3682 0 3683 0 4 -22 c3 -13 10 -50 17 -83 89 -477 387 -917 805
-1192 126 -83 257 -145 415 -197 168 -56 251 -73 433 -88 113 -9 175 -9 287 0
180 16 261 32 428 88 282 93 490 222 702 433 190 189 286 326 389 551 61 135
95 238 120 364 11 56 23 111 25 124 l5 22 4072 -2 4071 -3 18 -90 c82 -426
301 -797 634 -1074 595 -497 1460 -558 2117 -151 309 192 566 483 710 802 193
431 214 943 56 1376 -96 265 -226 468 -428 672 -292 294 -650 472 -1058 524
-366 47 -718 -12 -1044 -174 -510 -255 -870 -724 -982 -1279 l-23 -116 -4071
-3 -4072 -2 -4 22 c-3 13 -13 61 -22 108 -20 107 -80 288 -133 402 -175 380
-476 687 -856 873 -385 188 -798 233 -1225 135 -401 -92 -788 -346 -1037 -682
-171 -230 -285 -496 -343 -801 l-11 -57 -4072 2 -4071 3 -23 120 c-108 550
-470 1019 -981 1275 -186 93 -343 141 -569 175 -125 18 -341 18 -482 -1z m434
-469 c666 -108 1135 -639 1162 -1315 4 -123 2 -162 -16 -257 -28 -147 -60
-243 -127 -378 -157 -319 -440 -567 -774 -679 -286 -96 -604 -94 -884 3 -387
135 -709 458 -836 839 -58 174 -72 277 -67 477 5 192 18 269 66 410 133 383
448 698 836 838 193 69 447 94 640 62z m11852 -14 c355 -78 651 -276 843 -563
76 -113 112 -184 160 -314 100 -269 105 -585 13 -869 -96 -299 -296 -559 -558
-727 -253 -163 -549 -236 -846 -209 -413 38 -746 231 -994 576 -204 285 -288
670 -221 1025 78 414 343 769 718 959 148 76 230 101 468 145 62 11 328 -3
417 -23z m11772 -1 c519 -106 931 -509 1050 -1027 71 -307 31 -635 -109 -912
-129 -257 -358 -483 -615 -609 -189 -93 -374 -135 -595 -135 -278 0 -506 64
-728 207 -345 221 -564 565 -623 977 -15 107 -7 334 16 439 100 464 423 840
861 1005 223 84 500 105 743 55z m-11769 -9095 c255 -56 477 -174 658 -349
227 -219 365 -482 412 -786 15 -96 12 -312 -5 -417 -63 -387 -313 -751 -651
-947 -246 -143 -455 -194 -748 -183 -175 7 -243 19 -381 68 -202 71 -356 169
-511 325 -212 212 -334 448 -385 744 -25 146 -25 265 0 410 29 164 65 279 126
402 59 119 93 171 177 275 194 239 495 412 813 468 107 19 392 13 495 -10z"/>
</g>
</svg>
